<svg id="그룹_1" data-name="그룹 1" xmlns="http://www.w3.org/2000/svg" viewBox="0 0 21 21"><defs><style>.cls-1{fill:#fff;}.cls-2{fill:#c6c6c6;}.cls-3{fill:none;stroke:#b7b7b7;stroke-width:1.5px;}</style></defs><g id="Rectangle_1_copy_10" data-name="Rectangle 1 copy 10"><rect class="cls-1" x="0.5" y="0.5" width="20" height="20" rx="1.6"/><path class="cls-2" d="M18.9,1A1.1,1.1,0,0,1,20,2.1V18.9A1.1,1.1,0,0,1,18.9,20H2.1A1.1,1.1,0,0,1,1,18.9V2.1A1.1,1.1,0,0,1,2.1,1H18.9m0-1H2.1A2.1,2.1,0,0,0,0,2.1V18.9A2.1,2.1,0,0,0,2.1,21H18.9A2.1,2.1,0,0,0,21,18.9V2.1A2.1,2.1,0,0,0,18.9,0Z"/></g><path id="v" class="cls-3" d="M5.5,11.5l3,3,7-7"/></svg>