<svg id="그룹_1" data-name="그룹 1" xmlns="http://www.w3.org/2000/svg" width="16" height="16" viewBox="0 0 16 16">
  <metadata><?xpacket begin="﻿" id="W5M0MpCehiHzreSzNTczkc9d"?>
<x:xmpmeta xmlns:x="adobe:ns:meta/" x:xmptk="Adobe XMP Core 5.6-c142 79.160924, 2017/07/13-01:06:39        ">
   <rdf:RDF xmlns:rdf="http://www.w3.org/1999/02/22-rdf-syntax-ns#">
      <rdf:Description rdf:about=""/>
   </rdf:RDF>
</x:xmpmeta>
                                                                                                    
                                                                                                    
                                                                                                    
                                                                                                    
                                                                                                    
                                                                                                    
                                                                                                    
                                                                                                    
                                                                                                    
                                                                                                    
                                                                                                    
                                                                                                    
                                                                                                    
                                                                                                    
                                                                                                    
                                                                                                    
                                                                                                    
                                                                                                    
                                                                                                    
                                                                                                    
                           
<?xpacket end="w"?></metadata>
<defs>
    <style>
      .cls-1 {
        fill: none;
        stroke: #a8b5c0;
        stroke-width: 1px;
      }

      .cls-2 {
        fill: #839aae;
        fill-rule: evenodd;
      }
    </style>
  </defs>
  <circle id="Ellipse_3_copy" data-name="Ellipse 3 copy" class="cls-1" cx="8" cy="8" r="7.5"/>
  <path id="_copy" data-name="? copy" class="cls-2" d="M8.659,9.825a1.825,1.825,0,0,1,.607-1.481,4.693,4.693,0,0,0,1-1.183,2.325,2.325,0,0,0,.263-1.087,1.986,1.986,0,0,0-.534-1.462,1.961,1.961,0,0,0-1.458-.539A2.135,2.135,0,0,0,7.047,4.6a1.84,1.84,0,0,0-.6,1.41H7.09a1.329,1.329,0,0,1,.406-1,1.463,1.463,0,0,1,1.039-.368,1.294,1.294,0,0,1,1,.384,1.487,1.487,0,0,1,.357,1.054,1.945,1.945,0,0,1-.083.593,1.75,1.75,0,0,1-.236.478,6.833,6.833,0,0,1-.685.74,3.047,3.047,0,0,0-.693.909A2.815,2.815,0,0,0,8.02,9.825H8.659Zm-0.61,2.1a0.427,0.427,0,0,0,.325.122A0.438,0.438,0,0,0,8.7,11.921a0.409,0.409,0,0,0,.121-0.3A0.434,0.434,0,0,0,8.7,11.311a0.427,0.427,0,0,0-.325-0.127,0.417,0.417,0,0,0-.325.127,0.445,0.445,0,0,0-.115.311A0.419,0.419,0,0,0,8.049,11.921Z" transform="translate(-0.469 -0.5)"/>
  <path id="_copy_복사" data-name="? copy 복사" class="cls-2" d="M8.659,9.825a1.825,1.825,0,0,1,.607-1.481,4.693,4.693,0,0,0,1-1.183,2.325,2.325,0,0,0,.263-1.087,1.986,1.986,0,0,0-.534-1.462,1.961,1.961,0,0,0-1.458-.539A2.135,2.135,0,0,0,7.047,4.6a1.84,1.84,0,0,0-.6,1.41H7.09a1.329,1.329,0,0,1,.406-1,1.463,1.463,0,0,1,1.039-.368,1.294,1.294,0,0,1,1,.384,1.487,1.487,0,0,1,.357,1.054,1.945,1.945,0,0,1-.083.593,1.75,1.75,0,0,1-.236.478,6.833,6.833,0,0,1-.685.74,3.047,3.047,0,0,0-.693.909A2.815,2.815,0,0,0,8.02,9.825H8.659Zm-0.61,2.1a0.427,0.427,0,0,0,.325.122A0.438,0.438,0,0,0,8.7,11.921a0.409,0.409,0,0,0,.121-0.3A0.434,0.434,0,0,0,8.7,11.311a0.427,0.427,0,0,0-.325-0.127,0.417,0.417,0,0,0-.325.127,0.445,0.445,0,0,0-.115.311A0.419,0.419,0,0,0,8.049,11.921Z" transform="translate(-0.469 -0.5)"/>
</svg>
